<svg width="18" height="18" viewBox="0 0 18 18" fill="none" xmlns="http://www.w3.org/2000/svg">
<g id="heroicons:shopping-bag">
<path id="Vector" d="M11.8125 7.875V4.5C11.8125 3.75408 11.5162 3.03871 10.9888 2.51126C10.4613 1.98382 9.74597 1.6875 9.00005 1.6875C8.25413 1.6875 7.53876 1.98382 7.01131 2.51126C6.48387 3.03871 6.18755 3.75408 6.18755 4.5V7.875M14.7046 6.38025L15.6518 15.3802C15.7043 15.879 15.3143 16.3125 14.8125 16.3125H3.18755C3.06921 16.3126 2.95216 16.2879 2.84401 16.2398C2.73586 16.1917 2.63904 16.1215 2.55982 16.0336C2.4806 15.9456 2.42076 15.842 2.38419 15.7295C2.34762 15.6169 2.33514 15.4979 2.34755 15.3802L3.29555 6.38025C3.31742 6.17292 3.41527 5.98103 3.57024 5.84157C3.72521 5.70211 3.92632 5.62496 4.1348 5.625H13.8653C14.2973 5.625 14.6596 5.95125 14.7046 6.38025ZM6.4688 7.875C6.4688 7.94959 6.43917 8.02113 6.38642 8.07387C6.33368 8.12662 6.26214 8.15625 6.18755 8.15625C6.11296 8.15625 6.04142 8.12662 5.98868 8.07387C5.93593 8.02113 5.9063 7.94959 5.9063 7.875C5.9063 7.80041 5.93593 7.72887 5.98868 7.67613C6.04142 7.62338 6.11296 7.59375 6.18755 7.59375C6.26214 7.59375 6.33368 7.62338 6.38642 7.67613C6.43917 7.72887 6.4688 7.80041 6.4688 7.875ZM12.0938 7.875C12.0938 7.94959 12.0642 8.02113 12.0114 8.07387C11.9587 8.12662 11.8871 8.15625 11.8125 8.15625C11.738 8.15625 11.6664 8.12662 11.6137 8.07387C11.5609 8.02113 11.5313 7.94959 11.5313 7.875C11.5313 7.80041 11.5609 7.72887 11.6137 7.67613C11.6664 7.62338 11.738 7.59375 11.8125 7.59375C11.8871 7.59375 11.9587 7.62338 12.0114 7.67613C12.0642 7.72887 12.0938 7.80041 12.0938 7.875Z" stroke="#842A3A" stroke-linecap="round" stroke-linejoin="round"/>
</g>
</svg>
